<svg width="35" height="35" viewBox="0 0 35 35" fill="none" xmlns="http://www.w3.org/2000/svg">
<mask id="mask0_332_1062" style="mask-type:alpha" maskUnits="userSpaceOnUse" x="0" y="0" width="35" height="35">
<rect width="35" height="35" fill="#D9D9D9"/>
</mask>
<g mask="url(#mask0_332_1062)">
<path d="M28.4147 29.3909L19.2833 20.2595C18.5541 20.8803 17.7156 21.3608 16.7677 21.7011C15.8198 22.0414 14.8672 22.2115 13.9101 22.2115C11.5787 22.2115 9.60289 21.4015 7.98268 19.7816C6.36272 18.1614 5.55273 16.1856 5.55273 13.8542C5.55273 11.5228 6.36272 9.54698 7.98268 7.92677C9.60289 6.30681 11.5787 5.49683 13.9101 5.49683C16.2415 5.49683 18.2173 6.30681 19.8375 7.92677C21.4574 9.54698 22.2674 11.5228 22.2674 13.8542C22.2674 14.8675 22.0879 15.8481 21.7289 16.796C21.3699 17.7439 20.8988 18.5544 20.3154 19.2274L29.4468 28.3591L28.4147 29.3909ZM13.9101 20.7532C15.845 20.7532 17.4786 20.0871 18.8108 18.7549C20.143 17.423 20.8091 15.7894 20.8091 13.8542C20.8091 11.919 20.143 10.2854 18.8108 8.95344C17.4786 7.62125 15.845 6.95516 13.9101 6.95516C11.9749 6.95516 10.3413 7.62125 9.00935 8.95344C7.67716 10.2854 7.01107 11.919 7.01107 13.8542C7.01107 15.7894 7.67716 17.423 9.00935 18.7549C10.3413 20.0871 11.9749 20.7532 13.9101 20.7532Z" fill="white"/>
</g>
</svg>
